<svg xmlns="http://www.w3.org/2000/svg" xmlns:xlink="http://www.w3.org/1999/xlink" width="500" zoomAndPan="magnify" viewBox="0 0 375 374.999991" height="500" preserveAspectRatio="xMidYMid meet" version="1.0"><defs><g/><clipPath id="fa5ee44579"><path d="M 0 0.03125 L 375 0.03125 L 375 375 L 0 375 Z M 0 0.03125 " clip-rule="nonzero"/></clipPath><clipPath id="6a17f0663d"><path d="M 62.851562 62.886719 L 312.433594 62.886719 L 312.433594 312.464844 L 62.851562 312.464844 Z M 62.851562 62.886719 " clip-rule="nonzero"/></clipPath><clipPath id="37e78fcaf6"><path d="M 269 150 L 277.34375 150 L 277.34375 247 L 269 247 Z M 269 150 " clip-rule="nonzero"/></clipPath><clipPath id="04d468fcd3"><path d="M 97.167969 155 L 108 155 L 108 258 L 97.167969 258 Z M 97.167969 155 " clip-rule="nonzero"/></clipPath><clipPath id="c733fea8c2"><path d="M 173 252 L 199 252 L 199 260.609375 L 173 260.609375 Z M 173 252 " clip-rule="nonzero"/></clipPath></defs><rect x="-37.5" width="450" fill="#ffffff" y="-37.499999" height="449.999989" fill-opacity="1"/><rect x="-37.5" width="450" fill="#d8e2dc" y="-37.499999" height="449.999989" fill-opacity="1"/><g clip-path="url(#fa5ee44579)"><path fill="#000000" d="M 187.519531 375.070312 C 84.152344 375.070312 0 290.917969 0 187.550781 C 0 84.183594 84.152344 0.03125 187.519531 0.03125 C 290.886719 0.03125 375.039062 84.183594 375.039062 187.550781 C 375.039062 290.917969 290.886719 375.070312 187.519531 375.070312 Z M 187.519531 2.804688 C 85.628906 2.804688 2.769531 85.664062 2.769531 187.550781 C 2.769531 289.441406 85.628906 372.300781 187.519531 372.300781 C 289.40625 372.300781 372.265625 289.441406 372.265625 187.550781 C 372.265625 85.664062 289.40625 2.804688 187.519531 2.804688 Z M 187.519531 2.804688 " fill-opacity="1" fill-rule="nonzero"/></g><g clip-path="url(#6a17f0663d)"><path fill="#000000" d="M 187.644531 312.464844 C 118.855469 312.464844 62.851562 256.464844 62.851562 187.675781 C 62.851562 118.886719 118.855469 62.886719 187.644531 62.886719 C 256.433594 62.886719 312.433594 118.886719 312.433594 187.675781 C 312.433594 256.464844 256.433594 312.464844 187.644531 312.464844 Z M 187.644531 64.730469 C 119.839844 64.730469 64.695312 119.871094 64.695312 187.675781 C 64.695312 255.480469 119.839844 310.621094 187.644531 310.621094 C 255.449219 310.621094 310.589844 255.480469 310.589844 187.675781 C 310.589844 119.871094 255.449219 64.730469 187.644531 64.730469 Z M 187.644531 64.730469 " fill-opacity="1" fill-rule="nonzero"/></g><path fill="#161517" d="M 124.328125 138.679688 C 119.742188 137.65625 115.238281 138.484375 110.714844 139.464844 C 110.011719 139.617188 109.429688 140.382812 109.46875 141.101562 C 109.585938 143.265625 110.0625 145.34375 110.191406 147.46875 C 110.449219 151.796875 110.707031 156.121094 110.96875 160.449219 C 111.171875 163.921875 111.355469 167.402344 111.691406 170.863281 C 112.035156 174.457031 111.988281 178.136719 112.046875 181.746094 C 112.113281 185.441406 112.117188 189.136719 112.109375 192.835938 C 112.058594 208.5 111.628906 224.191406 112.636719 239.839844 C 112.707031 240.953125 113.589844 241.53125 114.648438 241.371094 C 114.871094 241.335938 115.089844 241.304688 115.3125 241.273438 C 115.429688 241.257812 115.542969 241.242188 115.65625 241.226562 C 116.144531 241.160156 115.3125 241.273438 115.722656 241.21875 C 116.214844 241.152344 116.707031 241.085938 117.199219 241.019531 C 117.5625 240.972656 116.796875 241.074219 117.171875 241.023438 C 117.277344 241.007812 117.382812 240.996094 117.488281 240.980469 C 117.71875 240.949219 117.945312 240.921875 118.175781 240.890625 C 118.734375 240.820312 119.292969 240.75 119.855469 240.683594 C 121.152344 240.53125 122.453125 240.390625 123.757812 240.261719 C 130.980469 239.535156 138.238281 239.121094 145.496094 239.171875 C 153.570312 239.230469 161.730469 239.820312 169.558594 241.859375 C 173.078125 242.777344 176.289062 243.941406 179.394531 245.714844 C 182.070312 247.246094 184.414062 249.234375 186.023438 251.742188 C 186.125 251.898438 186.222656 252.058594 186.316406 252.21875 C 187.46875 254.164062 190.503906 252.398438 189.351562 250.449219 C 185.722656 244.320312 179.148438 240.867188 172.527344 238.84375 C 164.703125 236.449219 156.367188 235.765625 148.222656 235.617188 C 136.832031 235.40625 125.203125 236.230469 113.984375 238.273438 C 113.921875 238.285156 113.863281 238.296875 113.800781 238.308594 C 114.476562 238.820312 115.144531 239.328125 115.816406 239.839844 C 114.351562 225.265625 114.753906 210.585938 114.789062 195.960938 C 114.808594 188.601562 114.765625 181.238281 114.445312 173.882812 C 114.277344 170.007812 113.902344 166.140625 113.652344 162.273438 C 113.347656 157.644531 113.09375 153.015625 112.867188 148.386719 C 112.75 145.960938 112.984375 143.527344 112.867188 141.101562 C 112.453125 141.644531 112.035156 142.191406 111.617188 142.738281 C 115.714844 141.875 119.738281 141.398438 123.933594 141.605469 C 125.613281 141.6875 125.96875 139.042969 124.328125 138.679688 " fill-opacity="1" fill-rule="nonzero"/><path fill="#161517" d="M 189.332031 249.644531 C 188.800781 248.117188 188.4375 247.09375 187.5625 245.730469 C 186.679688 244.355469 185.707031 243.042969 184.703125 241.75 C 182.535156 238.957031 180.070312 236.390625 177.398438 234.066406 C 170.816406 228.332031 162.851562 224.363281 154.351562 222.378906 C 142.085938 219.511719 129.378906 220.980469 117.398438 224.429688 C 118.125 225.15625 118.851562 225.878906 119.578125 226.605469 C 123.636719 212.425781 124.5625 197.574219 124.53125 182.898438 C 124.515625 175.890625 124.113281 168.894531 124.03125 161.894531 C 123.96875 156.550781 124.800781 151.214844 125.335938 145.910156 C 126.347656 135.914062 126.792969 124.894531 119.832031 116.785156 C 119.417969 117.78125 119.003906 118.777344 118.59375 119.769531 C 131.328125 118.105469 144.386719 119.488281 156.53125 123.601562 C 168.066406 127.511719 178.578125 134.128906 187.285156 142.609375 C 189.253906 144.53125 192.28125 141.519531 190.304688 139.59375 C 181.359375 130.875 170.386719 124.425781 158.628906 120.28125 C 146.472656 115.996094 132.914062 114.253906 120.117188 116.074219 C 119.457031 116.167969 118.789062 116.246094 118.125 116.335938 C 116.707031 116.53125 116.601562 118.390625 117.351562 119.257812 C 120.726562 123.144531 121.8125 128.40625 122.101562 133.410156 C 122.421875 139.042969 121.734375 144.699219 121.121094 150.292969 C 120.832031 152.96875 120.542969 155.644531 120.386719 158.332031 C 120.21875 161.101562 120.347656 163.851562 120.441406 166.617188 C 120.695312 173.960938 120.921875 181.308594 120.835938 188.65625 C 120.691406 201.128906 119.605469 213.636719 116.160156 225.664062 C 115.792969 226.953125 117.046875 228.210938 118.339844 227.839844 C 129.554688 224.609375 141.597656 223.296875 153.09375 225.832031 C 161.335938 227.652344 169 231.542969 175.429688 236.988281 C 177.957031 239.132812 180.273438 241.519531 182.394531 244.058594 C 183.363281 245.21875 184.15625 246.265625 185 247.433594 C 185.875 248.648438 186.675781 249.476562 187.671875 250.609375 C 188.320312 251.347656 189.65625 250.574219 189.332031 249.644531 " fill-opacity="1" fill-rule="nonzero"/><path fill="#161517" d="M 189.050781 142.507812 L 189.175781 142.511719 C 189.421875 142.511719 189.417969 142.128906 189.175781 142.125 C 188.886719 142.121094 188.597656 142.117188 188.308594 142.113281 C 188.046875 142.113281 188.046875 142.515625 188.308594 142.519531 C 188.394531 142.519531 188.480469 142.519531 188.539062 142.449219 C 188.605469 142.363281 188.605469 142.273438 188.539062 142.1875 C 188.480469 142.113281 188.394531 142.113281 188.308594 142.113281 C 188.046875 142.117188 188.046875 142.523438 188.308594 142.519531 C 188.597656 142.515625 188.886719 142.515625 189.175781 142.511719 C 189.417969 142.507812 189.421875 142.121094 189.175781 142.125 L 189.050781 142.128906 C 188.800781 142.132812 188.800781 142.503906 189.050781 142.507812 " fill-opacity="1" fill-rule="nonzero"/><path fill="#161517" d="M 254.863281 143.808594 C 256.671875 143.683594 257.980469 142.941406 259.5625 142.183594 C 259.148438 142.382812 259.683594 142.148438 259.773438 142.117188 C 259.964844 142.058594 260.160156 142.019531 260.355469 141.984375 C 260.003906 142.046875 260.695312 141.976562 260.765625 141.972656 C 261.046875 141.964844 261.328125 141.988281 261.605469 142.007812 C 263.347656 142.140625 265.101562 142.777344 266.742188 143.328125 C 266.328125 142.78125 265.914062 142.238281 265.496094 141.691406 C 265.394531 143.800781 265.644531 145.925781 265.539062 148.027344 C 265.324219 152.332031 265.097656 156.636719 264.820312 160.9375 C 264.601562 164.390625 264.402344 167.855469 264.050781 171.300781 C 263.683594 174.894531 263.722656 178.582031 263.648438 182.191406 C 263.570312 185.890625 263.550781 189.59375 263.546875 193.292969 C 263.539062 208.824219 264.109375 224.433594 262.542969 239.910156 C 263.199219 239.40625 263.863281 238.902344 264.523438 238.398438 C 254.421875 236.554688 244.003906 235.808594 233.753906 235.6875 C 225.472656 235.589844 217.105469 236.019531 208.980469 237.710938 C 202.09375 239.140625 194.878906 241.644531 189.859375 246.789062 C 188.78125 247.890625 187.835938 249.132812 187.042969 250.453125 C 185.875 252.394531 188.910156 254.15625 190.074219 252.222656 C 191.585938 249.707031 193.800781 247.761719 196.363281 246.207031 C 199.382812 244.367188 202.484375 243.238281 205.914062 242.273438 C 213.660156 240.089844 221.789062 239.453125 229.804688 239.28125 C 237.300781 239.121094 244.808594 239.492188 252.273438 240.140625 C 254.855469 240.367188 257.433594 240.636719 260.003906 240.953125 C 260.234375 240.980469 260.464844 241.007812 260.695312 241.039062 C 260.792969 241.050781 261.179688 241.101562 260.691406 241.035156 C 260.902344 241.066406 261.113281 241.089844 261.328125 241.117188 C 261.714844 241.160156 262.105469 241.207031 262.492188 241.257812 C 262.761719 241.292969 263.03125 241.328125 263.300781 241.363281 C 262.851562 241.304688 263.183594 241.347656 263.484375 241.386719 C 263.554688 241.398438 263.621094 241.410156 263.691406 241.417969 C 264.734375 241.570312 265.601562 241.011719 265.671875 239.910156 C 266.632812 225.285156 266.339844 210.621094 266.246094 195.976562 C 266.199219 188.613281 266.222656 181.246094 266.53125 173.886719 C 266.691406 170.085938 267.054688 166.292969 267.292969 162.496094 C 267.574219 157.898438 267.847656 153.304688 268.128906 148.703125 C 268.273438 146.339844 268.761719 144.089844 268.894531 141.691406 C 268.941406 140.910156 268.335938 140.292969 267.648438 140.058594 C 264.929688 139.125 261.617188 137.945312 258.726562 138.839844 C 257.089844 139.347656 255.925781 140.53125 254.46875 140.878906 C 252.847656 141.269531 253.167969 143.921875 254.863281 143.808594 " fill-opacity="1" fill-rule="nonzero"/><path fill="#161517" d="M 189.234375 250.410156 C 189.621094 249.71875 190.257812 249.070312 190.585938 248.394531 C 190.992188 247.570312 191.480469 246.777344 192.015625 246.035156 C 193.097656 244.535156 194.28125 243.171875 195.609375 241.878906 C 198.691406 238.882812 202.324219 236.582031 206.078125 234.523438 C 214.609375 229.84375 224.296875 226.945312 233.9375 225.722656 C 242.421875 224.644531 251.882812 224.558594 259.875 228.007812 C 261.207031 228.582031 262.957031 227.644531 262.476562 226.011719 C 258.339844 211.921875 257.558594 197.191406 257.699219 182.585938 C 257.765625 175.726562 258.285156 168.859375 258.269531 162 C 258.257812 156.648438 257.398438 151.316406 256.867188 145.996094 C 256.023438 137.585938 255.199219 126.988281 261.269531 120.171875 C 262.363281 118.941406 261.53125 117.386719 260.03125 117.1875 C 234.550781 113.800781 207.648438 121.652344 188.457031 138.90625 C 187.917969 139.390625 187.390625 139.886719 186.863281 140.386719 C 184.863281 142.285156 187.890625 145.296875 189.886719 143.402344 C 208.46875 125.757812 234.605469 117.445312 260.03125 120.683594 C 259.617188 119.691406 259.207031 118.695312 258.792969 117.703125 C 251.164062 126.367188 252.265625 138.371094 253.441406 149.035156 C 254.015625 154.246094 254.648438 159.425781 254.457031 164.679688 C 254.191406 171.96875 253.96875 179.261719 254.015625 186.554688 C 254.105469 200.136719 255.21875 213.867188 259.0625 226.949219 C 259.925781 226.285156 260.796875 225.617188 261.664062 224.953125 C 253.175781 221.292969 243.601562 220.921875 234.53125 221.984375 C 224.546875 223.152344 214.695312 226.023438 205.738281 230.605469 C 201.328125 232.859375 197.136719 235.71875 193.582031 239.179688 C 192.011719 240.710938 190.601562 242.425781 189.40625 244.261719 C 188.859375 245.09375 188.421875 245.984375 187.988281 246.875 C 187.566406 247.734375 187.5 248.960938 187.378906 249.90625 C 187.25 250.917969 188.78125 251.21875 189.234375 250.410156 " fill-opacity="1" fill-rule="nonzero"/><path fill="#161517" d="M 188.542969 142.710938 L 188.417969 142.710938 C 188.167969 142.707031 188.167969 143.089844 188.417969 143.09375 C 188.707031 143.097656 188.996094 143.101562 189.289062 143.105469 C 189.550781 143.109375 189.550781 142.703125 189.289062 142.699219 C 189.175781 142.699219 189.097656 142.710938 189.03125 142.808594 C 188.996094 142.855469 188.996094 142.945312 189.03125 142.996094 C 189.097656 143.089844 189.175781 143.105469 189.289062 143.105469 C 189.550781 143.101562 189.550781 142.695312 189.289062 142.699219 C 188.996094 142.703125 188.707031 142.707031 188.417969 142.710938 C 188.167969 142.714844 188.167969 143.097656 188.417969 143.09375 L 188.542969 143.089844 C 188.789062 143.089844 188.789062 142.714844 188.542969 142.710938 " fill-opacity="1" fill-rule="nonzero"/><path fill="#161517" d="M 188.023438 141.128906 C 187.007812 156.527344 189.679688 171.921875 189.964844 187.300781 C 190.105469 195.003906 190.066406 202.757812 189.679688 210.453125 C 189.425781 215.578125 188.957031 220.714844 188.558594 225.832031 C 188.210938 230.246094 187.867188 234.664062 187.636719 239.085938 C 187.453125 242.597656 187.148438 246.164062 187.402344 249.683594 C 187.503906 251.097656 189.746094 251.074219 189.59375 249.683594 C 189.136719 245.472656 189.457031 241.136719 189.742188 236.925781 C 190.078125 231.976562 190.488281 227.023438 191.082031 222.101562 C 192.726562 208.410156 192.84375 194.636719 192.011719 180.878906 C 191.207031 167.617188 189.867188 154.382812 188.957031 141.128906 C 188.917969 140.527344 188.0625 140.527344 188.023438 141.128906 " fill-opacity="1" fill-rule="nonzero"/><path fill="#161517" d="M 104.8125 152.347656 C 106.035156 152.722656 107.375 152.65625 108.644531 152.707031 C 109.683594 152.75 110.796875 152.820312 111.816406 152.585938 C 113.148438 152.285156 113.148438 150.210938 111.816406 149.910156 C 110.796875 149.679688 109.683594 149.75 108.644531 149.789062 C 107.375 149.84375 106.035156 149.773438 104.8125 150.148438 C 103.722656 150.484375 103.722656 152.015625 104.8125 152.347656 " fill-opacity="1" fill-rule="nonzero"/><path fill="#161517" d="M 267.65625 153.121094 C 268.464844 153.191406 269.222656 152.785156 269.667969 152.128906 C 269.375 152.5625 269.035156 152.726562 268.53125 152.792969 C 268.644531 152.777344 268.757812 152.789062 268.871094 152.789062 C 269.609375 152.808594 270.273438 152.941406 270.941406 152.523438 C 271.898438 151.929688 271.898438 150.570312 270.941406 149.972656 C 270.121094 149.460938 268.566406 149.589844 267.675781 150 C 267.386719 150.132812 267.191406 150.421875 267.035156 150.679688 C 267.320312 150.207031 267.210938 150.445312 267.085938 150.582031 C 266.976562 150.699219 266.84375 150.785156 266.738281 150.90625 C 265.960938 151.792969 266.507812 153.023438 267.65625 153.121094 " fill-opacity="1" fill-rule="nonzero"/><path fill="#161517" d="M 104.761719 151.25 C 104.820312 154.578125 105.339844 157.878906 105.476562 161.214844 C 105.617188 164.714844 105.566406 168.222656 105.433594 171.722656 C 105.164062 178.679688 104.5 185.617188 104.140625 192.566406 C 103.339844 207.902344 103.878906 223.25 103.75 238.585938 C 103.71875 242.074219 103.882812 245.554688 103.871094 249.039062 C 103.867188 250.644531 106.371094 250.644531 106.359375 249.039062 C 106.292969 241.378906 105.503906 233.710938 105.863281 226.039062 C 106.046875 222.183594 105.847656 218.277344 105.847656 214.414062 C 105.847656 210.558594 105.875 206.699219 105.945312 202.84375 C 106.203125 188.714844 108.019531 174.515625 107.007812 160.390625 C 106.785156 157.28125 106.558594 154.082031 105.453125 151.15625 C 105.320312 150.800781 104.757812 150.832031 104.761719 151.25 " fill-opacity="1" fill-rule="nonzero"/><path fill="#161517" d="M 104.832031 250.714844 C 110.8125 251.503906 116.851562 251.125 122.847656 250.722656 C 129.136719 250.300781 135.40625 249.632812 141.679688 249.074219 C 147.800781 248.527344 153.933594 248.089844 160.078125 248.027344 C 163.105469 247.996094 166.136719 248.074219 169.15625 248.269531 C 170.726562 248.375 172.296875 248.519531 173.859375 248.695312 C 175.410156 248.871094 176.859375 249.222656 178.398438 248.800781 C 179.402344 248.527344 179.46875 247.257812 178.671875 246.71875 C 177.457031 245.898438 176.132812 245.796875 174.710938 245.613281 C 173.152344 245.414062 171.582031 245.269531 170.015625 245.148438 C 167 244.917969 163.972656 244.863281 160.949219 244.882812 C 154.660156 244.921875 148.378906 245.410156 142.121094 245.988281 C 135.839844 246.570312 129.566406 247.261719 123.285156 247.820312 C 117.140625 248.367188 110.980469 248.546875 104.832031 248.960938 C 103.675781 249.039062 103.730469 250.570312 104.832031 250.714844 " fill-opacity="1" fill-rule="nonzero"/><path fill="#161517" d="M 176.257812 247.167969 C 176.113281 248.363281 177.429688 249.753906 178.222656 250.515625 C 179.273438 251.523438 180.414062 252.449219 181.703125 253.136719 C 184.4375 254.601562 187.625 254.597656 190.609375 254.128906 C 193.296875 253.710938 195.847656 252.503906 197.894531 250.722656 C 199.535156 249.289062 201.625 245.644531 199.84375 243.660156 C 199.292969 243.046875 198.347656 243.285156 197.9375 243.902344 C 197.371094 244.761719 197.65625 245.878906 197.253906 246.820312 C 196.871094 247.714844 196.214844 248.410156 195.472656 249.027344 C 193.886719 250.339844 191.46875 250.820312 189.496094 251.132812 C 187.203125 251.503906 184.761719 251.273438 182.683594 250.210938 C 181.609375 249.660156 180.6875 248.878906 179.789062 248.085938 C 179.03125 247.421875 177.597656 246.460938 176.550781 246.789062 C 176.363281 246.84375 176.28125 246.984375 176.257812 247.167969 " fill-opacity="1" fill-rule="nonzero"/><path fill="#161517" d="M 199.527344 245.03125 C 201.980469 244.839844 204.378906 244.570312 206.84375 244.609375 C 209.476562 244.652344 212.105469 244.90625 214.734375 244.996094 C 217.886719 245.101562 221.070312 244.84375 224.21875 244.773438 C 227.667969 244.695312 231.125 244.621094 234.574219 244.726562 C 241.023438 244.925781 247.46875 245.304688 253.90625 245.714844 C 257.074219 245.914062 260.242188 246.101562 263.410156 246.242188 C 265.085938 246.320312 266.765625 246.375 268.445312 246.414062 C 270.117188 246.457031 271.839844 246.585938 273.457031 246.085938 C 274.769531 245.679688 274.765625 243.847656 273.457031 243.4375 C 271.984375 242.976562 270.433594 243.035156 268.90625 242.996094 C 267.226562 242.953125 265.542969 242.878906 263.867188 242.792969 C 260.542969 242.628906 257.226562 242.394531 253.90625 242.175781 C 247.304688 241.742188 240.722656 241.378906 234.101562 241.414062 C 230.808594 241.429688 227.515625 241.445312 224.21875 241.535156 C 220.949219 241.628906 217.660156 241.894531 214.386719 241.824219 C 211.746094 241.773438 209.109375 241.5625 206.460938 241.558594 C 203.996094 241.550781 201.09375 241.613281 198.988281 243.046875 C 198.1875 243.59375 198.386719 245.125 199.527344 245.03125 " fill-opacity="1" fill-rule="nonzero"/><g clip-path="url(#37e78fcaf6)"><path fill="#161517" d="M 270.285156 150.765625 C 269.570312 154.285156 270.046875 158.160156 270.511719 161.691406 C 270.996094 165.34375 271.664062 168.964844 272.195312 172.609375 C 273.285156 180.125 273.328125 187.804688 273.472656 195.382812 C 273.621094 202.972656 274.109375 210.589844 273.890625 218.179688 C 273.785156 221.921875 273.472656 225.664062 272.929688 229.371094 C 272.664062 231.183594 272.46875 233.003906 272.273438 234.828125 C 272.09375 236.511719 271.789062 238.222656 271.734375 239.910156 C 271.703125 240.867188 271.625 241.820312 271.558594 242.777344 C 271.519531 243.359375 271.4375 243.925781 271.617188 244.5 C 271.65625 244.632812 271.699219 244.765625 271.738281 244.898438 C 271.953125 245.589844 271.722656 245.300781 271.757812 244.761719 C 271.640625 246.476562 274.304688 246.460938 274.421875 244.761719 L 274.425781 244.699219 C 274.292969 245.015625 274.164062 245.328125 274.035156 245.640625 C 275.265625 244.402344 274.949219 241.828125 275.011719 240.222656 C 275.144531 236.90625 275.511719 233.496094 275.992188 230.210938 C 277.082031 222.738281 277.242188 215.230469 276.875 207.695312 C 276.5 200.074219 276.480469 192.445312 276.109375 184.824219 C 275.925781 181.058594 275.671875 177.285156 275.175781 173.546875 C 274.691406 169.894531 273.980469 166.285156 273.335938 162.65625 C 273 160.757812 272.730469 158.84375 272.453125 156.933594 C 272.152344 154.882812 272.128906 152.8125 271.839844 150.765625 C 271.726562 149.972656 270.4375 150.015625 270.285156 150.765625 " fill-opacity="1" fill-rule="nonzero"/></g><path fill="#161517" d="M 105.207031 151.1875 C 103.988281 150.726562 102.683594 151.894531 101.835938 152.644531 C 100.945312 153.433594 99.058594 154.699219 99.242188 156.058594 C 99.28125 156.339844 99.414062 156.625 99.722656 156.691406 C 101.140625 156.996094 102.28125 155.386719 103.1875 154.519531 C 104.039062 153.707031 105.367188 152.777344 105.449219 151.511719 C 105.460938 151.355469 105.339844 151.238281 105.207031 151.1875 " fill-opacity="1" fill-rule="nonzero"/><g clip-path="url(#04d468fcd3)"><path fill="#161517" d="M 99.21875 155.292969 C 97.613281 157.980469 97.488281 161.542969 97.394531 164.597656 C 97.289062 168.042969 97.726562 171.527344 97.945312 174.964844 C 98.410156 182.371094 98.042969 189.851562 97.851562 197.265625 C 97.753906 201.132812 97.671875 205 97.582031 208.867188 C 97.492188 212.761719 97.242188 216.644531 97.269531 220.539062 C 97.308594 226.398438 97.863281 232.292969 97.652344 238.144531 C 97.523438 241.628906 97.390625 245.109375 97.34375 248.59375 C 97.320312 250.175781 97.304688 251.765625 97.375 253.351562 C 97.425781 254.445312 97.421875 255.960938 98.507812 256.589844 C 98.257812 256.265625 98.007812 255.941406 97.761719 255.617188 C 97.773438 255.699219 97.785156 255.785156 97.796875 255.871094 C 97.933594 256.800781 98.984375 257.09375 99.753906 256.980469 C 100.613281 256.851562 100.898438 256.261719 101.320312 255.589844 C 101.808594 254.824219 102.441406 254.140625 103.058594 253.480469 C 104.289062 252.171875 105.828125 251.148438 107.082031 249.847656 C 108.101562 248.789062 106.496094 247.179688 105.46875 248.234375 C 103.304688 250.453125 100.710938 252.179688 98.515625 254.355469 C 99.019531 254.222656 99.523438 254.089844 100.023438 253.957031 C 99.933594 253.945312 99.84375 253.933594 99.753906 253.917969 C 100.125 254.570312 100.492188 255.222656 100.863281 255.871094 C 100.964844 255.175781 101.003906 254.589844 100.480469 254.035156 C 100.597656 254.15625 100.851562 254.816406 100.738281 254.363281 C 100.613281 253.855469 100.742188 254.554688 100.6875 254.066406 C 100.648438 253.71875 100.632812 253.371094 100.609375 253.023438 C 100.515625 251.222656 100.550781 249.414062 100.585938 247.613281 C 100.65625 244.101562 100.824219 240.601562 100.945312 237.09375 C 101.042969 234.246094 100.785156 231.359375 100.707031 228.511719 C 100.601562 224.605469 100.574219 220.699219 100.542969 216.789062 C 100.488281 209.039062 100.90625 201.289062 101.015625 193.539062 C 101.109375 186.941406 101.308594 180.316406 100.746094 173.738281 C 100.480469 170.691406 100.261719 167.648438 100.050781 164.597656 C 99.835938 161.554688 100.152344 158.546875 100.066406 155.523438 C 100.054688 155.074219 99.453125 154.898438 99.21875 155.292969 " fill-opacity="1" fill-rule="nonzero"/></g><path fill="#161517" d="M 99.03125 257.589844 C 102.089844 257.898438 105.328125 257.511719 108.386719 257.3125 C 111.511719 257.109375 114.632812 256.902344 117.757812 256.699219 C 124.015625 256.292969 130.277344 255.902344 136.539062 255.566406 C 142.796875 255.230469 149.058594 254.960938 155.320312 254.785156 C 161.554688 254.609375 167.824219 254.371094 174.042969 254.910156 C 175.058594 255 175.882812 253.824219 175.582031 252.898438 C 175.128906 251.503906 175.722656 250.613281 176.5 249.460938 C 176.96875 248.769531 176.050781 247.878906 175.359375 248.320312 C 173.707031 249.382812 172.582031 251.363281 172.449219 253.320312 C 172.980469 252.789062 173.511719 252.257812 174.042969 251.726562 C 167.8125 252.136719 161.5625 252.054688 155.320312 252.257812 C 149.054688 252.457031 142.796875 252.769531 136.539062 253.132812 C 130.273438 253.496094 124.015625 253.921875 117.757812 254.359375 C 114.632812 254.578125 111.511719 254.800781 108.386719 255.019531 C 105.242188 255.242188 101.894531 255.292969 98.820312 256.011719 C 97.875 256.230469 98.183594 257.503906 99.03125 257.589844 " fill-opacity="1" fill-rule="nonzero"/><g clip-path="url(#c733fea8c2)"><path fill="#161517" d="M 173.097656 253.960938 C 174.148438 255.648438 176.542969 256.613281 178.277344 257.441406 C 180.617188 258.5625 183.152344 259.394531 185.679688 259.960938 C 188.144531 260.515625 190.699219 260.625 193.179688 260.097656 C 195.1875 259.671875 197.5 258.203125 198.613281 256.464844 C 199.203125 255.539062 197.875 254.5625 197.121094 255.3125 C 196.433594 255.988281 195.8125 256.578125 194.949219 257.027344 C 194.148438 257.453125 192.933594 257.53125 192.042969 257.613281 C 189.890625 257.816406 187.667969 257.429688 185.574219 256.957031 C 183.335938 256.449219 181.210938 255.640625 179.085938 254.8125 C 177.382812 254.148438 175.585938 252.972656 173.757812 252.820312 C 173.179688 252.769531 172.8125 253.5 173.097656 253.960938 " fill-opacity="1" fill-rule="nonzero"/></g><path fill="#161517" d="M 199.417969 244.574219 C 199.140625 245.304688 199.066406 246.160156 198.925781 246.929688 C 198.746094 247.898438 198.476562 248.851562 198.207031 249.800781 C 197.660156 251.703125 197.050781 253.578125 196.675781 255.527344 C 196.554688 256.148438 196.839844 256.890625 197.53125 257.035156 C 197.640625 257.058594 197.75 257.066406 197.859375 257.078125 C 198.359375 257.121094 198.957031 256.675781 199.042969 256.179688 C 199.386719 254.230469 199.917969 252.316406 200.347656 250.386719 C 200.734375 248.644531 201.398438 246.324219 200.800781 244.574219 C 200.5625 243.875 199.667969 243.910156 199.417969 244.574219 " fill-opacity="1" fill-rule="nonzero"/><path fill="#161517" d="M 198.527344 255.664062 C 201.648438 256.253906 204.890625 256.164062 208.054688 256.183594 C 211.496094 256.203125 214.941406 256.214844 218.386719 256.25 C 224.777344 256.308594 231.175781 256.292969 237.5625 256.488281 C 243.15625 256.660156 248.761719 257.035156 254.359375 256.773438 C 257.132812 256.644531 259.910156 256.355469 262.644531 255.855469 C 264.894531 255.445312 268.144531 255.007812 269.671875 253.144531 C 270.183594 252.519531 269.84375 251.703125 269.039062 251.621094 C 267.886719 251.503906 266.824219 251.859375 265.722656 252.167969 C 264.449219 252.527344 263.164062 252.804688 261.863281 253.03125 C 259.132812 253.507812 256.351562 253.648438 253.582031 253.738281 C 248.121094 253.914062 242.664062 253.621094 237.207031 253.476562 C 230.933594 253.308594 224.65625 253.597656 218.386719 253.796875 C 215.101562 253.902344 211.8125 253.996094 208.523438 254.078125 C 205.203125 254.160156 201.800781 254.085938 198.527344 254.707031 C 198.050781 254.796875 198.050781 255.574219 198.527344 255.664062 " fill-opacity="1" fill-rule="nonzero"/><path fill="#161517" d="M 272.859375 243.929688 C 269.855469 244.398438 267.957031 249.097656 267.503906 251.695312 C 267.371094 252.457031 267.578125 253.203125 268.289062 253.617188 C 269.015625 254.042969 270.253906 253.859375 270.621094 253.007812 C 271.226562 251.605469 271.539062 250.097656 272.089844 248.671875 C 272.585938 247.382812 273.5 246.296875 273.921875 244.992188 C 274.144531 244.304688 273.464844 243.839844 272.859375 243.929688 " fill-opacity="1" fill-rule="nonzero"/><g fill="#000000" fill-opacity="1"><g transform="translate(73.510295, 109.050865)"><g><path d="M 3.234375 -28.546875 C 4.285156 -29.078125 5.296875 -29.367188 6.265625 -29.421875 C 7.234375 -29.472656 8.082031 -29.335938 8.8125 -29.015625 C 9.539062 -28.703125 10.242188 -28.289062 10.921875 -27.78125 C 11.597656 -27.28125 12.242188 -26.75 12.859375 -26.1875 C 13.484375 -25.632812 14.09375 -25.125 14.6875 -24.65625 C 15.28125 -24.195312 15.925781 -23.867188 16.625 -23.671875 C 17.332031 -23.472656 18.050781 -23.472656 18.78125 -23.671875 L 19.5625 -23.015625 L 16.3125 -19.1875 C 14.863281 -19.644531 13.328125 -20.5625 11.703125 -21.9375 L 9.5 -23.8125 C 7.96875 -25.113281 6.570312 -25.734375 5.3125 -25.671875 C 4.050781 -25.617188 2.820312 -24.890625 1.625 -23.484375 L -5.28125 -15.359375 L 5.359375 -6.3125 L 2.6875 -3.171875 L -22.046875 -24.1875 L -12.359375 -35.578125 C -10.304688 -37.992188 -8.160156 -39.359375 -5.921875 -39.671875 C -3.679688 -39.984375 -1.492188 -39.234375 0.640625 -37.421875 C 2.054688 -36.210938 2.96875 -34.914062 3.375 -33.53125 C 3.78125 -32.15625 3.734375 -30.492188 3.234375 -28.546875 Z M -1.71875 -33.796875 C -2.5625 -34.515625 -3.378906 -35 -4.171875 -35.25 C -4.960938 -35.5 -5.703125 -35.515625 -6.390625 -35.296875 C -7.078125 -35.078125 -7.707031 -34.742188 -8.28125 -34.296875 C -8.863281 -33.859375 -9.46875 -33.273438 -10.09375 -32.546875 L -16.5625 -24.9375 L -8.078125 -17.71875 L -1.609375 -25.328125 C -0.179688 -27.003906 0.519531 -28.519531 0.5 -29.875 C 0.488281 -31.238281 -0.25 -32.546875 -1.71875 -33.796875 Z M -1.71875 -33.796875 "/></g></g></g><g fill="#000000" fill-opacity="1"><g transform="translate(96.49366, 82.765766)"><g><path d="M -1.96875 -16.75 L 4.484375 -7.6875 L 20.078125 -18.8125 L 22.203125 -15.84375 L 3.25 -2.328125 L -15.59375 -28.75 L 2.671875 -41.78125 L 4.8125 -38.78125 L -10.09375 -28.140625 L -4.078125 -19.703125 L 10.3125 -29.96875 L 12.421875 -27.015625 Z M -1.96875 -16.75 "/></g></g></g><g fill="#000000" fill-opacity="1"><g transform="translate(123.242333, 64.117589)"><g><path d="M 15.9375 -16.859375 L 4.359375 -12.21875 L 4.796875 -1.921875 L 0.703125 -0.28125 L -0.625 -34.703125 L 4.34375 -36.6875 L 26.984375 -10.796875 L 22.6875 -9.078125 Z M 13.59375 -19.671875 L 3.46875 -31.5625 L 4.015625 -15.84375 Z M 13.59375 -19.671875 "/></g></g></g><g fill="#000000" fill-opacity="1"><g transform="translate(153.489298, 52.224627)"><g><path d="M 3.953125 -0.53125 L -0.390625 -32.6875 L 11.96875 -34.359375 C 16.03125 -34.898438 19.421875 -33.894531 22.140625 -31.34375 C 24.859375 -28.800781 26.550781 -25.050781 27.21875 -20.09375 C 27.894531 -15.070312 27.257812 -10.96875 25.3125 -7.78125 C 23.375 -4.601562 20.375 -2.742188 16.3125 -2.203125 Z M 7.546875 -4.703125 L 15.125 -5.734375 C 18.28125 -6.160156 20.539062 -7.539062 21.90625 -9.875 C 23.269531 -12.207031 23.679688 -15.398438 23.140625 -19.453125 C 22.578125 -23.546875 21.332031 -26.535156 19.40625 -28.421875 C 17.488281 -30.304688 14.941406 -31.035156 11.765625 -30.609375 L 4.1875 -29.578125 Z M 7.546875 -4.703125 "/></g></g></g><g fill="#000000" fill-opacity="1"><g transform="translate(189.075993, 48.725931)"><g/></g></g><g fill="#000000" fill-opacity="1"><g transform="translate(205.251666, 49.057756)"><g><path d="M 27.03125 -9.703125 C 27.988281 -8.992188 28.703125 -8.210938 29.171875 -7.359375 C 29.648438 -6.515625 29.90625 -5.695312 29.9375 -4.90625 C 29.96875 -4.113281 29.90625 -3.300781 29.75 -2.46875 C 29.59375 -1.644531 29.398438 -0.832031 29.171875 -0.03125 C 28.941406 0.769531 28.75 1.535156 28.59375 2.265625 C 28.445312 3.003906 28.441406 3.734375 28.578125 4.453125 C 28.710938 5.179688 29.03125 5.828125 29.53125 6.390625 L 29.28125 7.375 L 24.421875 6.15625 C 24.191406 4.65625 24.335938 2.875 24.859375 0.8125 L 25.5625 -2 C 26.050781 -3.9375 25.988281 -5.457031 25.375 -6.5625 C 24.769531 -7.675781 23.570312 -8.460938 21.78125 -8.921875 L 11.4375 -11.53125 L 8.03125 2.015625 L 4.03125 1.015625 L 11.953125 -30.453125 L 26.453125 -26.796875 C 29.535156 -26.023438 31.710938 -24.707031 32.984375 -22.84375 C 34.253906 -20.976562 34.546875 -18.6875 33.859375 -15.96875 C 33.410156 -14.15625 32.648438 -12.757812 31.578125 -11.78125 C 30.515625 -10.8125 29 -10.117188 27.03125 -9.703125 Z M 29.5625 -16.46875 C 29.832031 -17.550781 29.898438 -18.5 29.765625 -19.3125 C 29.640625 -20.125 29.328125 -20.789062 28.828125 -21.3125 C 28.328125 -21.84375 27.753906 -22.269531 27.109375 -22.59375 C 26.460938 -22.914062 25.675781 -23.191406 24.75 -23.421875 L 15.0625 -25.875 L 12.34375 -15.078125 L 22.03125 -12.625 C 24.164062 -12.09375 25.832031 -12.132812 27.03125 -12.75 C 28.238281 -13.363281 29.082031 -14.601562 29.5625 -16.46875 Z M 29.5625 -16.46875 "/></g></g></g><g fill="#000000" fill-opacity="1"><g transform="translate(239.588891, 59.038342)"><g><path d="M 21.546875 -25.75 L 7.8125 3.65625 L 4.03125 1.890625 L 17.765625 -27.515625 Z M 21.546875 -25.75 "/></g></g></g><g fill="#000000" fill-opacity="1"><g transform="translate(254.447132, 65.169637)"><g><path d="M 35.890625 6.96875 C 34.503906 8.851562 32.910156 10.390625 31.109375 11.578125 C 29.316406 12.773438 27.4375 13.585938 25.46875 14.015625 C 23.507812 14.453125 21.476562 14.425781 19.375 13.9375 C 17.269531 13.457031 15.257812 12.515625 13.34375 11.109375 C 9.582031 8.328125 7.472656 4.828125 7.015625 0.609375 C 6.554688 -3.609375 7.832031 -7.757812 10.84375 -11.84375 C 13.84375 -15.914062 17.429688 -18.359375 21.609375 -19.171875 C 25.796875 -19.992188 29.765625 -19.015625 33.515625 -16.234375 C 37.328125 -13.421875 39.453125 -9.898438 39.890625 -5.671875 C 40.328125 -1.453125 38.992188 2.757812 35.890625 6.96875 Z M 31.34375 -13.28125 C 28.570312 -15.332031 25.609375 -16 22.453125 -15.28125 C 19.296875 -14.570312 16.523438 -12.609375 14.140625 -9.390625 C 11.765625 -6.171875 10.703125 -2.953125 10.953125 0.265625 C 11.210938 3.492188 12.734375 6.132812 15.515625 8.1875 C 18.273438 10.21875 21.234375 10.890625 24.390625 10.203125 C 27.546875 9.523438 30.285156 7.613281 32.609375 4.46875 C 35.046875 1.164062 36.144531 -2.097656 35.90625 -5.328125 C 35.675781 -8.566406 34.15625 -11.21875 31.34375 -13.28125 Z M 31.34375 -13.28125 "/></g></g></g><g fill="#000000" fill-opacity="1"><g transform="translate(284.038394, 88.00157)"><g><path d="M 32.21875 -6.09375 L 10 12.171875 L 7.375 8.96875 L 29.59375 -9.296875 L 22.8125 -17.546875 L 25.65625 -19.890625 L 41.828125 -0.21875 L 38.984375 2.125 Z M 32.21875 -6.09375 "/></g></g></g><g fill="#000000" fill-opacity="1"><g transform="translate(20.116674, 209.19535)"><g><path d="M 2.421875 5.125 C 2.628906 6.15625 3.113281 6.796875 3.875 7.046875 C 4.644531 7.304688 5.65625 7.3125 6.90625 7.0625 L 19.453125 4.53125 L 19.90625 6.8125 L 6.53125 9.515625 C 5 9.816406 3.691406 9.601562 2.609375 8.875 C 1.535156 8.15625 0.84375 7.023438 0.53125 5.484375 C 0.226562 3.953125 0.40625 2.65625 1.0625 1.59375 C 1.71875 0.53125 2.773438 -0.144531 4.234375 -0.4375 L 5.796875 -0.75 L 6.265625 1.578125 L 5.109375 1.8125 C 4.078125 2.019531 3.328125 2.410156 2.859375 2.984375 C 2.390625 3.554688 2.242188 4.269531 2.421875 5.125 Z M 2.421875 5.125 "/></g></g></g><g fill="#000000" fill-opacity="1"><g transform="translate(23.681807, 226.332765)"><g><path d="M 14.21875 14.734375 C 12.96875 15.148438 11.738281 15.34375 10.53125 15.3125 C 9.332031 15.28125 8.210938 15.046875 7.171875 14.609375 C 6.140625 14.179688 5.21875 13.515625 4.40625 12.609375 C 3.59375 11.710938 2.976562 10.640625 2.5625 9.390625 C 1.726562 6.898438 1.878906 4.613281 3.015625 2.53125 C 4.160156 0.445312 6.078125 -1.046875 8.765625 -1.953125 C 11.453125 -2.847656 13.882812 -2.804688 16.0625 -1.828125 C 18.25 -0.859375 19.753906 0.863281 20.578125 3.34375 C 21.421875 5.863281 21.265625 8.160156 20.109375 10.234375 C 18.953125 12.304688 16.988281 13.804688 14.21875 14.734375 Z M 18.640625 3.984375 C 18.023438 2.148438 16.878906 0.890625 15.203125 0.203125 C 13.523438 -0.484375 11.625 -0.472656 9.5 0.234375 C 7.382812 0.953125 5.863281 2.085938 4.9375 3.640625 C 4.007812 5.203125 3.859375 6.90625 4.484375 8.75 C 5.085938 10.5625 6.222656 11.816406 7.890625 12.515625 C 9.566406 13.210938 11.441406 13.21875 13.515625 12.53125 C 15.679688 11.800781 17.234375 10.65625 18.171875 9.09375 C 19.109375 7.539062 19.265625 5.835938 18.640625 3.984375 Z M 18.640625 3.984375 "/></g></g></g><g fill="#000000" fill-opacity="1"><g transform="translate(31.940086, 249.120887)"><g><path d="M 18.53125 -3.1875 L 2.015625 4.390625 L 1.03125 2.265625 L 17.546875 -5.3125 Z M 18.53125 -3.1875 "/></g></g></g><g fill="#000000" fill-opacity="1"><g transform="translate(36.815826, 259.836894)"><g><path d="M 23.828125 4.640625 L 8.171875 13.859375 L 6.84375 11.625 L 14.734375 -3.953125 L 2.0625 3.515625 L 0.953125 1.625 L 16.609375 -7.59375 L 17.890625 -5.421875 L 9.921875 10.28125 L 22.703125 2.75 Z M 23.828125 4.640625 "/></g></g></g><g fill="#000000" fill-opacity="1"><g transform="translate(48.841256, 279.211167)"><g/></g></g><g fill="#000000" fill-opacity="1"><g transform="translate(55.79251, 288.609049)"><g><path d="M 17.875 -4.140625 L 5.859375 6.578125 L 4.328125 4.84375 L 16.34375 -5.875 L 12.375 -10.328125 L 13.921875 -11.703125 L 23.40625 -1.0625 L 21.859375 0.3125 Z M 17.875 -4.140625 "/></g></g></g><g fill="#000000" fill-opacity="1"><g transform="translate(69.476184, 303.593209)"><g><path d="M 15.78125 2.734375 L 8.734375 -3.375 L 3.3125 2.875 L 1.5625 1.34375 L 13.46875 -12.390625 L 15.21875 -10.859375 L 10.0625 -4.921875 L 17.109375 1.1875 L 22.265625 -4.75 L 24.015625 -3.234375 L 12.109375 10.5 L 10.359375 8.984375 Z M 15.78125 2.734375 "/></g></g></g><g fill="#000000" fill-opacity="1"><g transform="translate(87.173823, 318.431228)"><g><path d="M 8.34375 -4.421875 L 4.921875 0.796875 L 13.890625 6.6875 L 12.765625 8.390625 L 1.859375 1.234375 L 11.84375 -13.953125 L 22.359375 -7.046875 L 21.21875 -5.3125 L 12.640625 -10.953125 L 9.46875 -6.109375 L 17.75 -0.671875 L 16.625 1.015625 Z M 8.34375 -4.421875 "/></g></g></g><g fill="#000000" fill-opacity="1"><g transform="translate(105.306016, 329.788203)"><g/></g></g><g fill="#000000" fill-opacity="1"><g transform="translate(115.689935, 335.24638)"><g><path d="M 16.328125 1.046875 C 15.734375 2.484375 14.804688 3.457031 13.546875 3.96875 C 12.285156 4.476562 10.90625 4.429688 9.40625 3.828125 L 1.828125 0.734375 L 8.65625 -16.109375 L 15.46875 -13.328125 C 16.238281 -13.015625 16.882812 -12.640625 17.40625 -12.203125 C 17.925781 -11.773438 18.304688 -11.34375 18.546875 -10.90625 C 18.796875 -10.46875 18.957031 -10 19.03125 -9.5 C 19.101562 -9.007812 19.109375 -8.566406 19.046875 -8.171875 C 18.984375 -7.773438 18.875 -7.390625 18.71875 -7.015625 C 18.019531 -5.296875 16.753906 -4.394531 14.921875 -4.3125 C 15.816406 -3.445312 16.375 -2.59375 16.59375 -1.75 C 16.820312 -0.90625 16.734375 0.0234375 16.328125 1.046875 Z M 16.453125 -7.59375 C 16.671875 -8.125 16.765625 -8.601562 16.734375 -9.03125 C 16.703125 -9.457031 16.5625 -9.832031 16.3125 -10.15625 C 16.0625 -10.476562 15.765625 -10.753906 15.421875 -10.984375 C 15.085938 -11.210938 14.675781 -11.425781 14.1875 -11.625 L 10.046875 -13.3125 L 7.875 -7.953125 L 12.015625 -6.265625 C 13.097656 -5.828125 14.007812 -5.695312 14.75 -5.875 C 15.5 -6.0625 16.066406 -6.632812 16.453125 -7.59375 Z M 9.96875 1.84375 C 10.539062 2.070312 11.078125 2.175781 11.578125 2.15625 C 12.078125 2.144531 12.488281 2.03125 12.8125 1.8125 C 13.132812 1.59375 13.40625 1.347656 13.625 1.078125 C 13.851562 0.816406 14.035156 0.523438 14.171875 0.203125 C 14.535156 -0.691406 14.5625 -1.507812 14.25 -2.25 C 13.945312 -2.988281 13.304688 -3.554688 12.328125 -3.953125 L 7.109375 -6.078125 L 4.75 -0.28125 Z M 9.96875 1.84375 "/></g></g></g><g fill="#000000" fill-opacity="1"><g transform="translate(135.960784, 343.194819)"><g><path d="M 20.09375 -3.984375 C 19.769531 -2.710938 19.265625 -1.570312 18.578125 -0.5625 C 17.898438 0.4375 17.097656 1.253906 16.171875 1.890625 C 15.242188 2.523438 14.179688 2.9375 12.984375 3.125 C 11.796875 3.320312 10.5625 3.257812 9.28125 2.9375 C 6.738281 2.289062 4.898438 0.925781 3.765625 -1.15625 C 2.628906 -3.25 2.410156 -5.671875 3.109375 -8.421875 C 3.804688 -11.171875 5.15625 -13.195312 7.15625 -14.5 C 9.15625 -15.8125 11.421875 -16.144531 13.953125 -15.5 C 16.523438 -14.84375 18.367188 -13.46875 19.484375 -11.375 C 20.609375 -9.28125 20.8125 -6.816406 20.09375 -3.984375 Z M 13.4375 -13.515625 C 11.570312 -13.992188 9.894531 -13.710938 8.40625 -12.671875 C 6.925781 -11.640625 5.910156 -10.035156 5.359375 -7.859375 C 4.804688 -5.691406 4.9375 -3.796875 5.75 -2.171875 C 6.5625 -0.554688 7.90625 0.488281 9.78125 0.96875 C 11.632812 1.4375 13.304688 1.160156 14.796875 0.140625 C 16.285156 -0.878906 17.300781 -2.453125 17.84375 -4.578125 C 18.40625 -6.796875 18.285156 -8.71875 17.484375 -10.34375 C 16.679688 -11.976562 15.332031 -13.035156 13.4375 -13.515625 Z M 13.4375 -13.515625 "/></g></g></g><g fill="#000000" fill-opacity="1"><g transform="translate(159.912201, 348.882744)"><g><path d="M 19.296875 -6.84375 C 19.160156 -5.539062 18.828125 -4.34375 18.296875 -3.25 C 17.773438 -2.164062 17.101562 -1.242188 16.28125 -0.484375 C 15.457031 0.273438 14.46875 0.835938 13.3125 1.203125 C 12.15625 1.578125 10.921875 1.695312 9.609375 1.5625 C 6.992188 1.289062 4.972656 0.207031 3.546875 -1.6875 C 2.128906 -3.59375 1.566406 -5.960938 1.859375 -8.796875 C 2.148438 -11.617188 3.1875 -13.816406 4.96875 -15.390625 C 6.75 -16.972656 8.941406 -17.628906 11.546875 -17.359375 C 14.179688 -17.085938 16.207031 -15.992188 17.625 -14.078125 C 19.039062 -12.171875 19.597656 -9.757812 19.296875 -6.84375 Z M 11.34375 -15.3125 C 9.425781 -15.507812 7.804688 -14.988281 6.484375 -13.75 C 5.160156 -12.519531 4.382812 -10.789062 4.15625 -8.5625 C 3.925781 -6.332031 4.332031 -4.472656 5.375 -2.984375 C 6.414062 -1.503906 7.898438 -0.664062 9.828125 -0.46875 C 11.734375 -0.269531 13.347656 -0.785156 14.671875 -2.015625 C 16.003906 -3.242188 16.78125 -4.945312 17 -7.125 C 17.238281 -9.40625 16.84375 -11.289062 15.8125 -12.78125 C 14.78125 -14.269531 13.289062 -15.113281 11.34375 -15.3125 Z M 11.34375 -15.3125 "/></g></g></g><g fill="#000000" fill-opacity="1"><g transform="translate(184.354035, 350.959849)"><g><path d="M 4.078125 -6.484375 L 4.296875 -0.140625 L 1.96875 -0.0625 L 1.359375 -18.21875 L 3.6875 -18.296875 L 4 -9.109375 L 12.703125 -18.609375 L 15.671875 -18.703125 L 8.546875 -11.0625 L 16.375 -0.5625 L 13.625 -0.46875 L 6.921875 -9.5625 Z M 4.078125 -6.484375 "/></g></g></g><g fill="#000000" fill-opacity="1"><g transform="translate(205.716325, 349.762775)"><g/></g></g><g fill="#000000" fill-opacity="1"><g transform="translate(217.391576, 348.248251)"><g><path d="M 10.921875 -11.8125 C 11.566406 -11.707031 12.113281 -11.507812 12.5625 -11.21875 C 13.019531 -10.925781 13.359375 -10.582031 13.578125 -10.1875 C 13.804688 -9.789062 13.988281 -9.367188 14.125 -8.921875 C 14.257812 -8.484375 14.375 -8.035156 14.46875 -7.578125 C 14.5625 -7.117188 14.664062 -6.6875 14.78125 -6.28125 C 14.90625 -5.875 15.09375 -5.503906 15.34375 -5.171875 C 15.59375 -4.847656 15.914062 -4.613281 16.3125 -4.46875 L 16.4375 -3.921875 L 13.703125 -3.265625 C 13.210938 -3.953125 12.828125 -4.878906 12.546875 -6.046875 L 12.171875 -7.609375 C 11.910156 -8.703125 11.484375 -9.441406 10.890625 -9.828125 C 10.304688 -10.222656 9.507812 -10.300781 8.5 -10.0625 L 2.703125 -8.671875 L 4.515625 -1.078125 L 2.265625 -0.546875 L -1.953125 -18.21875 L 6.1875 -20.15625 C 7.914062 -20.5625 9.335938 -20.46875 10.453125 -19.875 C 11.566406 -19.289062 12.304688 -18.234375 12.671875 -16.703125 C 12.921875 -15.679688 12.90625 -14.789062 12.625 -14.03125 C 12.351562 -13.28125 11.785156 -12.539062 10.921875 -11.8125 Z M 10.40625 -15.828125 C 10.257812 -16.441406 10.046875 -16.929688 9.765625 -17.296875 C 9.492188 -17.660156 9.164062 -17.910156 8.78125 -18.046875 C 8.40625 -18.179688 8.015625 -18.242188 7.609375 -18.234375 C 7.203125 -18.234375 6.734375 -18.171875 6.203125 -18.046875 L 0.78125 -16.75 L 2.234375 -10.671875 L 7.65625 -11.96875 C 8.863281 -12.25 9.6875 -12.695312 10.125 -13.3125 C 10.5625 -13.9375 10.65625 -14.773438 10.40625 -15.828125 Z M 10.40625 -15.828125 "/></g></g></g><g fill="#000000" fill-opacity="1"><g transform="translate(239.762163, 342.512521)"><g><path d="M 1.28125 -9.359375 L 3.515625 -3.53125 L 13.53125 -7.390625 L 14.265625 -5.484375 L 2.078125 -0.796875 L -4.4375 -17.765625 L 7.3125 -22.28125 L 8.046875 -20.34375 L -1.53125 -16.65625 L 0.546875 -11.25 L 9.78125 -14.8125 L 10.515625 -12.921875 Z M 1.28125 -9.359375 "/></g></g></g><g fill="#000000" fill-opacity="1"><g transform="translate(259.886133, 334.429786)"><g><path d="M 8.59375 -4.640625 L 6.40625 -3.453125 L -7.984375 -16.34375 L -5.796875 -17.515625 L 6.203125 -6.515625 L 3.328125 -22.453125 L 5.5 -23.625 Z M 8.59375 -4.640625 "/></g></g></g><g fill="#000000" fill-opacity="1"><g transform="translate(278.920208, 323.857152)"><g><path d="M 9.703125 -18.015625 C 10.484375 -16.960938 11.046875 -15.851562 11.390625 -14.6875 C 11.734375 -13.53125 11.851562 -12.390625 11.75 -11.265625 C 11.644531 -10.148438 11.285156 -9.070312 10.671875 -8.03125 C 10.066406 -6.988281 9.234375 -6.078125 8.171875 -5.296875 C 6.046875 -3.742188 3.816406 -3.191406 1.484375 -3.640625 C -0.847656 -4.085938 -2.851562 -5.457031 -4.53125 -7.75 C -6.207031 -10.039062 -6.910156 -12.375 -6.640625 -14.75 C -6.378906 -17.125 -5.191406 -19.082031 -3.078125 -20.625 C -0.929688 -22.195312 1.300781 -22.742188 3.625 -22.265625 C 5.945312 -21.796875 7.972656 -20.378906 9.703125 -18.015625 Z M -1.859375 -18.96875 C -3.410156 -17.832031 -4.257812 -16.359375 -4.40625 -14.546875 C -4.5625 -12.742188 -3.976562 -10.9375 -2.65625 -9.125 C -1.332031 -7.320312 0.207031 -6.21875 1.96875 -5.8125 C 3.738281 -5.414062 5.40625 -5.789062 6.96875 -6.9375 C 8.507812 -8.0625 9.359375 -9.523438 9.515625 -11.328125 C 9.679688 -13.128906 9.117188 -14.914062 7.828125 -16.6875 C 6.472656 -18.53125 4.914062 -19.660156 3.15625 -20.078125 C 1.394531 -20.492188 -0.273438 -20.125 -1.859375 -18.96875 Z M -1.859375 -18.96875 "/></g></g></g><g fill="#000000" fill-opacity="1"><g transform="translate(298.340332, 309.012687)"><g><path d="M -9.40625 -16.140625 L 1.71875 -4.453125 L 8.21875 -10.640625 L 9.625 -9.15625 L 1.453125 -1.375 L -11.078125 -14.546875 Z M -9.40625 -16.140625 "/></g></g></g><g fill="#000000" fill-opacity="1"><g transform="translate(311.893932, 295.860082)"><g><path d="M -5.34375 -22.15625 L -3.875 -23.953125 L 6 -15.859375 C 7.414062 -14.703125 8.132812 -13.289062 8.15625 -11.625 C 8.1875 -9.957031 7.53125 -8.300781 6.1875 -6.65625 C 4.820312 -4.988281 3.332031 -4.015625 1.71875 -3.734375 C 0.101562 -3.453125 -1.414062 -3.894531 -2.84375 -5.0625 L -12.71875 -13.15625 L -11.265625 -14.9375 L -1.390625 -6.84375 C -0.367188 -6.007812 0.660156 -5.710938 1.703125 -5.953125 C 2.742188 -6.191406 3.710938 -6.859375 4.609375 -7.953125 C 5.523438 -9.078125 5.976562 -10.179688 5.96875 -11.265625 C 5.96875 -12.347656 5.488281 -13.28125 4.53125 -14.0625 Z M -5.34375 -22.15625 "/></g></g></g><g fill="#000000" fill-opacity="1"><g transform="translate(326.177395, 277.766402)"><g><path d="M -9 -16 L 4.671875 -7.46875 L 3.4375 -5.515625 L -10.234375 -14.046875 L -13.390625 -8.984375 L -15.125 -10.078125 L -7.578125 -22.15625 L -5.84375 -21.0625 Z M -9 -16 "/></g></g></g><g fill="#000000" fill-opacity="1"><g transform="translate(336.394329, 260.621379)"><g><path d="M -14.09375 -12.453125 L 2.15625 -4.3125 L 1.109375 -2.21875 L -15.140625 -10.359375 Z M -14.09375 -12.453125 "/></g></g></g><g fill="#000000" fill-opacity="1"><g transform="translate(341.751255, 250.088439)"><g><path d="M -1.765625 -20.390625 C -0.535156 -19.929688 0.535156 -19.3125 1.453125 -18.53125 C 2.378906 -17.75 3.109375 -16.863281 3.640625 -15.875 C 4.171875 -14.882812 4.46875 -13.785156 4.53125 -12.578125 C 4.59375 -11.367188 4.394531 -10.144531 3.9375 -8.90625 C 3.019531 -6.445312 1.460938 -4.765625 -0.734375 -3.859375 C -2.941406 -2.960938 -5.378906 -3.007812 -8.046875 -4 C -10.703125 -5 -12.566406 -6.5625 -13.640625 -8.6875 C -14.710938 -10.820312 -14.796875 -13.113281 -13.890625 -15.5625 C -12.953125 -18.050781 -11.382812 -19.734375 -9.1875 -20.609375 C -6.988281 -21.492188 -4.515625 -21.421875 -1.765625 -20.390625 Z M -11.96875 -14.84375 C -12.632812 -13.03125 -12.535156 -11.328125 -11.671875 -9.734375 C -10.804688 -8.148438 -9.320312 -6.960938 -7.21875 -6.171875 C -5.125 -5.390625 -3.226562 -5.3125 -1.53125 -5.9375 C 0.164062 -6.570312 1.351562 -7.800781 2.03125 -9.625 C 2.695312 -11.414062 2.597656 -13.101562 1.734375 -14.6875 C 0.878906 -16.28125 -0.566406 -17.460938 -2.609375 -18.234375 C -4.753906 -19.035156 -6.675781 -19.128906 -8.375 -18.515625 C -10.082031 -17.898438 -11.28125 -16.675781 -11.96875 -14.84375 Z M -11.96875 -14.84375 "/></g></g></g><g fill="#000000" fill-opacity="1"><g transform="translate(349.964934, 226.928761)"><g><path d="M -14.296875 -19.625 L 3.453125 -15.71875 L 2.890625 -13.171875 L -13.484375 -7.140625 L 0.875 -3.984375 L 0.40625 -1.84375 L -17.34375 -5.75 L -16.796875 -8.203125 L -0.265625 -14.28125 L -14.765625 -17.46875 Z M -14.296875 -19.625 "/></g></g></g></svg>